<svg xmlns="http://www.w3.org/2000/svg" viewBox="0 0 120 120" role="img" aria-labelledby="title">
  <title>AAAPak logo</title>
  <defs>
    <linearGradient id="grad" x1="0" y1="0" x2="1" y2="1">
      <stop offset="0%" stop-color="#00a49a" />
      <stop offset="100%" stop-color="#005b8e" />
    </linearGradient>
  </defs>
  <rect width="120" height="120" rx="24" fill="#fff" />
  <path d="M32 26 L88 26 L104 42 L88 58 L32 58 L16 42 Z" fill="url(#grad)" />
  <path d="M32 26 L32 58 L16 42 Z" fill="#0b4d5d" />
  <path d="M88 26 L104 42 L88 58 Z" fill="#0b4d5d" />
  <path d="M38 46 L52 46 L58 58 L52 70 L38 70 L32 58 Z" fill="#fff" />
  <path d="M62 46 L76 46 L82 58 L76 70 L62 70 L56 58 Z" fill="#fff" />
  <path d="M38 66 L52 66 L58 78 L52 90 L38 90 L32 78 Z" fill="#fff" opacity="0.8" />
  <path d="M62 66 L76 66 L82 78 L76 90 L62 90 L56 78 Z" fill="#fff" opacity="0.8" />
</svg>